<svg width="52" height="52" viewBox="0 0 52 52" fill="none" xmlns="http://www.w3.org/2000/svg">
<g filter="url(#filter0_d_793_323)">
<rect x="6" y="4" width="40" height="40" rx="4" fill="#1868DB"/>
<path d="M21.9255 23.2449C21.623 22.9126 21.1692 22.9428 20.9575 23.3356L16.0572 33.1541C15.8757 33.5468 16.1479 34 16.5714 34H23.4077C23.6194 34 23.8311 33.8792 23.9219 33.6677C25.4041 30.6164 24.4967 25.9941 21.9255 23.2449Z" fill="url(#paint0_linear_793_323)"/>
<path d="M25.5251 14.3025C22.7724 18.6529 22.9539 23.4564 24.7688 27.0817C26.5838 30.707 27.9752 33.4562 28.066 33.6676C28.1567 33.8792 28.3685 34 28.5802 34H35.4165C35.84 34 36.1424 33.5468 35.9307 33.1541C35.9307 33.1541 26.735 14.7859 26.493 14.3327C26.3116 13.9098 25.7974 13.8796 25.5251 14.3025Z" fill="white"/>
</g>
<defs>
<filter id="filter0_d_793_323" x="0" y="0" width="52" height="52" filterUnits="userSpaceOnUse" color-interpolation-filters="sRGB">
<feFlood flood-opacity="0" result="BackgroundImageFix"/>
<feColorMatrix in="SourceAlpha" type="matrix" values="0 0 0 0 0 0 0 0 0 0 0 0 0 0 0 0 0 0 127 0" result="hardAlpha"/>
<feOffset dy="2"/>
<feGaussianBlur stdDeviation="3"/>
<feColorMatrix type="matrix" values="0 0 0 0 0 0 0 0 0 0 0 0 0 0 0 0 0 0 0.05 0"/>
<feBlend mode="normal" in2="BackgroundImageFix" result="effect1_dropShadow_793_323"/>
<feBlend mode="normal" in="SourceGraphic" in2="effect1_dropShadow_793_323" result="shape"/>
</filter>
<linearGradient id="paint0_linear_793_323" x1="24.6125" y1="24.7461" x2="19.4403" y2="33.7159" gradientUnits="userSpaceOnUse">
<stop stop-color="white" stop-opacity="0.4"/>
<stop offset="0.9228" stop-color="white"/>
</linearGradient>
</defs>
</svg>
