<svg width="41" height="40" viewBox="0 0 41 40" fill="none" xmlns="http://www.w3.org/2000/svg">
<path d="M2.28002 3C1.51145 3 0.870974 3.68626 0.999069 4.43492L6.44312 36.565C6.57122 37.3762 7.27575 38 8.17241 38H34.2398C34.8803 38 35.3927 37.5633 35.5208 36.9395L40.9648 4.43492C41.093 3.68626 40.5165 3 39.6838 3H2.28002ZM25.209 26.2086H16.8829L14.6412 14.729H27.2587L25.209 26.2086Z" fill="#2684FF"/>
<path d="M39.2354 14.729H27.1943L25.2088 26.2086H16.8826L7.01929 37.5633C7.01929 37.5633 7.46762 38 8.17215 38H34.2395C34.88 38 35.3924 37.5633 35.5205 36.9393L39.2354 14.729Z" fill="url(#paint0_linear_816_367)"/>
<defs>
<linearGradient id="paint0_linear_816_367" x1="41.9966" y1="17.9539" x2="22.5263" y2="33.5564" gradientUnits="userSpaceOnUse">
<stop offset="0.176" stop-color="#0052CC"/>
<stop offset="1" stop-color="#2684FF"/>
</linearGradient>
</defs>
</svg>
