<svg width="40" height="40" viewBox="0 0 40 40" fill="none" xmlns="http://www.w3.org/2000/svg">
<rect width="40" height="40" rx="4" fill="white"/>
<rect width="40" height="40" rx="4" fill="#0052CC"/>
<path d="M8.85184 26.4124C8.60341 26.827 8.32441 27.3119 8.10656 27.6912C8.0046 27.8675 7.9743 28.0777 8.02219 28.2766C8.07007 28.4755 8.19231 28.6472 8.36263 28.7549L13.3312 31.8833C13.4175 31.9379 13.5136 31.9743 13.6138 31.9904C13.7141 32.0066 13.8165 32.0022 13.915 31.9774C14.0135 31.9527 14.1063 31.9081 14.1878 31.8463C14.2693 31.7845 14.338 31.7067 14.3899 31.6174C14.5848 31.2772 14.8409 30.8353 15.1199 30.3621C17.0882 27.0381 19.0718 27.4448 22.6377 29.189L27.5642 31.5861C27.6565 31.6311 27.7568 31.6567 27.8589 31.6613C27.9611 31.6659 28.0632 31.6495 28.159 31.613C28.2549 31.5766 28.3427 31.5208 28.4171 31.449C28.4915 31.3772 28.5511 31.2909 28.5923 31.1951L30.9581 25.7203C31.0384 25.5323 31.0434 25.3196 30.9719 25.128C30.9004 24.9363 30.7582 24.7811 30.5759 24.6957C29.5363 24.1951 27.4686 23.1979 25.6073 22.279C18.896 18.9393 13.2051 19.1583 8.85184 26.4124Z" fill="url(#paint0_linear_111_32)"/>
<path d="M31.13 13.5858C31.3784 13.1712 31.6574 12.6863 31.8944 12.307C31.996 12.1302 32.0257 11.9197 31.9771 11.7208C31.9285 11.5218 31.8054 11.3504 31.6345 11.2433L26.6659 8.11486C26.5797 8.06094 26.484 8.02503 26.3841 8.00921C26.2843 7.99339 26.1824 7.99798 26.0843 8.02271C25.9862 8.04744 25.8939 8.09181 25.8126 8.15327C25.7314 8.21474 25.6629 8.29206 25.6111 8.38078C25.4123 8.72101 25.1563 9.1629 24.8773 9.63608C22.9089 12.9601 20.9292 12.5534 17.3594 10.8093L12.4176 8.4238C12.3255 8.37945 12.2256 8.35438 12.1238 8.35008C12.0221 8.34578 11.9205 8.36234 11.8251 8.39877C11.7296 8.4352 11.6423 8.49077 11.5682 8.56223C11.494 8.63368 11.4346 8.71957 11.3934 8.81486L9.02756 14.2897C8.94722 14.4776 8.94226 14.6903 9.01375 14.882C9.08524 15.0736 9.22746 15.2289 9.40976 15.3142C10.4493 15.8148 12.5208 16.812 14.3783 17.731C21.0859 21.0432 26.7768 20.8243 31.13 13.5858Z" fill="url(#paint1_linear_111_32)"/>
<defs>
<linearGradient id="paint0_linear_111_32" x1="30.809" y1="33.4867" x2="15.6082" y2="24.9498" gradientUnits="userSpaceOnUse">
<stop stop-color="white" stop-opacity="0.48"/>
<stop offset="0.38" stop-color="white" stop-opacity="0.66"/>
<stop offset="1" stop-color="white"/>
</linearGradient>
<linearGradient id="paint1_linear_111_32" x1="9.17279" y1="6.4998" x2="24.3737" y2="15.0367" gradientUnits="userSpaceOnUse">
<stop stop-color="white" stop-opacity="0.5"/>
<stop offset="0.39" stop-color="white" stop-opacity="0.68"/>
<stop offset="1" stop-color="white"/>
</linearGradient>
</defs>
</svg>
