<svg width="42" height="40" viewBox="0 0 42 40" fill="none" xmlns="http://www.w3.org/2000/svg">
<path d="M1.46978 30.3901C1.04114 31.0891 0.559741 31.9002 0.183853 32.5465C0.00793269 32.8438 -0.044337 33.1982 0.0382823 33.5336C0.120902 33.869 0.331814 34.1587 0.625685 34.3402L9.19857 39.6158C9.34754 39.7078 9.51334 39.7692 9.68628 39.7965C9.85923 39.8237 10.0359 39.8162 10.2059 39.7745C10.3759 39.7327 10.5359 39.6576 10.6766 39.5533C10.8173 39.4491 10.9358 39.3179 11.0253 39.1674C11.3616 38.5937 11.8034 37.8485 12.2848 37.0506C15.681 31.4452 19.1036 32.131 25.2562 35.0722L33.7566 39.1146C33.9159 39.1905 34.0889 39.2336 34.2652 39.2414C34.4415 39.2492 34.6176 39.2215 34.783 39.16C34.9484 39.0985 35.0998 39.0044 35.2282 38.8834C35.3566 38.7623 35.4594 38.6167 35.5305 38.4552L39.6125 29.2229C39.7512 28.9059 39.7597 28.5472 39.6364 28.224C39.513 27.9009 39.2676 27.6391 38.9531 27.4951C37.1594 26.651 33.5917 24.9628 30.3802 23.4197C18.8002 17.7879 8.98095 18.1572 1.46978 30.3901Z" fill="url(#paint0_linear_792_322)"/>
<path d="M39.9089 9.41944C40.3376 8.72042 40.819 7.90271 41.2278 7.26304C41.4032 6.96496 41.4544 6.60995 41.3705 6.27445C41.2867 5.93895 41.0744 5.64982 40.7794 5.46932L32.2065 0.1937C32.0578 0.102764 31.8925 0.0422091 31.7203 0.0155343C31.548 -0.0111404 31.3722 -0.00340363 31.2029 0.0382956C31.0337 0.0799948 30.8744 0.154827 30.7342 0.258472C30.5941 0.362117 30.4759 0.492516 30.3864 0.642128C30.0435 1.21585 29.6017 1.96103 29.1203 2.75897C25.7241 8.36432 22.3081 7.67849 16.1488 4.73733L7.62211 0.714668C7.46309 0.639871 7.29072 0.597607 7.11514 0.590357C6.93956 0.583107 6.7643 0.611017 6.59965 0.672451C6.43501 0.733886 6.2843 0.827602 6.15639 0.948097C6.02847 1.06859 5.92592 1.21344 5.85477 1.37412L1.77276 10.6065C1.63414 10.9234 1.62558 11.2821 1.74893 11.6053C1.87229 11.9285 2.11767 12.1903 2.43221 12.3342C4.22592 13.1783 7.80016 14.8599 11.0051 16.4096C22.5785 21.9952 32.3978 21.6259 39.9089 9.41944Z" fill="url(#paint1_linear_792_322)"/>
<defs>
<linearGradient id="paint0_linear_792_322" x1="39.3553" y1="42.3196" x2="13.4191" y2="27.4094" gradientUnits="userSpaceOnUse">
<stop stop-color="#0050D3"/>
<stop offset="0.94" stop-color="#007FFC"/>
<stop offset="1" stop-color="#0082FF"/>
</linearGradient>
<linearGradient id="paint1_linear_792_322" x1="2.02335" y1="-2.52984" x2="27.9596" y2="12.3738" gradientUnits="userSpaceOnUse">
<stop stop-color="#0050D3"/>
<stop offset="0.94" stop-color="#007FFC"/>
<stop offset="1" stop-color="#0082FF"/>
</linearGradient>
</defs>
</svg>
