<svg width="40" height="40" viewBox="0 0 40 40" fill="none" xmlns="http://www.w3.org/2000/svg">
<rect width="40" height="40" rx="4" fill="white"/>
<rect width="40" height="40" rx="4" fill="#0052CC"/>
<path d="M13.1527 8L7.52926 14.7624L7 15.3923L7.52926 16.0884L19.173 30.9392L20 32L20.827 30.9392L32.4707 16.0884L33 15.3923L32.4707 14.7624L26.8473 8H13.1527ZM14.145 10.1215H18.0153L15.1705 14.3646H10.6056L14.145 10.1215ZM21.9847 10.1215H25.855L29.3944 14.3646H24.8295L21.9847 10.1215ZM20 11.0166L22.2494 14.3646H17.7506L20 11.0166ZM10.5064 16.4862H14.972L17.486 25.4033L10.5064 16.4862ZM17.1552 16.4862H22.8117L20 26.3646L17.1552 16.4862ZM25.028 16.4862H29.4936L22.514 25.3702L25.028 16.4862Z" fill="#F1F1F1"/>
</svg>
