<svg width="40" height="40" viewBox="0 0 40 40" fill="none" xmlns="http://www.w3.org/2000/svg">
<rect width="40" height="40" rx="4" fill="white"/>
<rect width="40" height="40" rx="4" fill="url(#paint0_linear_110_365)"/>
<path d="M13.127 9.375L7.48242 16.1484L6.95117 16.7793L7.48242 17.4766L19.1699 32.3516L20 33.4141L20.8301 32.3516L32.5176 17.4766L33.0488 16.7793L32.5176 16.1484L26.873 9.375H13.127ZM14.123 11.5H18.0078L15.1523 15.75H10.5703L14.123 11.5ZM21.9922 11.5H25.877L29.4297 15.75H24.8477L21.9922 11.5ZM20 12.3965L22.2578 15.75H17.7422L20 12.3965ZM10.4707 17.875H14.9531L17.4766 26.8066L10.4707 17.875ZM17.1445 17.875H22.8223L20 27.7695L17.1445 17.875ZM25.0469 17.875H29.5293L22.5234 26.7734L25.0469 17.875Z" fill="#F1F1F1"/>
<defs>
<linearGradient id="paint0_linear_110_365" x1="0.363412" y1="-5.09052" x2="32.434" y2="4.12606" gradientUnits="userSpaceOnUse">
<stop stop-color="#A900D3"/>
<stop offset="0.855" stop-color="#FC00E7"/>
<stop offset="1" stop-color="#FF00EA"/>
</linearGradient>
</defs>
</svg>
