<svg width="224" height="224" viewBox="0 0 224 224" fill="none" xmlns="http://www.w3.org/2000/svg">
<path fill-rule="evenodd" clip-rule="evenodd" d="M197.369 0H26.6304C19.5728 0.0163333 12.809 2.82739 7.81826 7.81823C2.82755 12.8089 0.0164889 19.5737 0 26.6313V197.369C0.0164889 204.426 2.82755 211.192 7.81826 216.182C12.809 221.172 19.5728 223.983 26.6304 224H197.369C204.428 223.983 211.191 221.172 216.182 216.182C221.174 211.192 223.984 204.426 224 197.369V26.6313C223.984 19.5737 221.174 12.8089 216.182 7.81823C211.191 2.82739 204.428 0.0163333 197.369 0ZM96.5062 161.342C96.5062 163.702 95.5698 165.965 93.9007 167.634C92.2315 169.302 89.9698 170.24 87.6084 170.24H50.2749C47.9152 170.24 45.6534 169.302 43.9843 167.634C42.3151 165.965 41.3771 163.702 41.3771 161.342V50.2135C41.3771 47.8537 42.3151 45.5903 43.9843 43.9212C45.6534 42.2537 47.9152 41.3157 50.2749 41.3157H87.6084C89.9698 41.3157 92.2315 42.2537 93.9007 43.9212C95.5698 45.5903 96.5062 47.8537 96.5062 50.2135V161.342ZM182.684 110.32C182.686 111.485 182.454 112.639 182.006 113.716C181.558 114.792 180.902 115.768 180.076 116.589C179.248 117.41 178.266 118.061 177.187 118.501C176.109 118.941 174.953 119.163 173.786 119.156H136.453C135.288 119.163 134.132 118.941 133.054 118.501C131.975 118.061 130.993 117.41 130.165 116.589C129.339 115.768 128.683 114.792 128.235 113.716C127.787 112.639 127.555 111.485 127.555 110.32V50.2135C127.555 47.8537 128.493 45.5903 130.162 43.9212C131.831 42.2537 134.093 41.3157 136.453 41.3157H173.786C176.148 41.3157 178.41 42.2537 180.079 43.9212C181.748 45.5903 182.684 47.8537 182.684 50.2135V110.32Z" fill="url(#paint0_linear_201_274)"/>
<defs>
<linearGradient id="paint0_linear_201_274" x1="112" y1="224.062" x2="112" y2="-0.0622256" gradientUnits="userSpaceOnUse">
<stop stop-color="#0052CC"/>
<stop offset="1" stop-color="#2684FF"/>
</linearGradient>
</defs>
</svg>
