<svg width="40" height="40" viewBox="0 0 40 40" fill="none" xmlns="http://www.w3.org/2000/svg">
<g clip-path="url(#clip0_111_25)">
<path fill-rule="evenodd" clip-rule="evenodd" d="M35.2445 0H4.75543C3.49514 0.00291666 2.28732 0.504891 1.39612 1.39611C0.50492 2.2873 0.00294445 3.4953 0 4.75559V35.2445C0.00294445 36.5046 0.50492 37.7129 1.39612 38.6039C2.28732 39.495 3.49514 39.997 4.75543 40H35.2445C36.505 39.997 37.7127 39.495 38.6039 38.6039C39.4954 37.7129 39.9971 36.5046 40 35.2445V4.75559C39.9971 3.4953 39.4954 2.2873 38.6039 1.39611C37.7127 0.504891 36.505 0.00291666 35.2445 0ZM17.2333 28.8111C17.2333 29.2325 17.066 29.6366 16.768 29.9346C16.4699 30.2325 16.066 30.4 15.6444 30.4H8.97766C8.55629 30.4 8.15239 30.2325 7.85434 29.9346C7.55627 29.6366 7.38877 29.2325 7.38877 28.8111V8.9667C7.38877 8.5453 7.55627 8.14113 7.85434 7.84307C8.15239 7.5453 8.55629 7.3778 8.97766 7.3778H15.6444C16.066 7.3778 16.4699 7.5453 16.768 7.84307C17.066 8.14113 17.2333 8.5453 17.2333 8.9667V28.8111ZM32.6221 19.7C32.6225 19.908 32.5811 20.1141 32.5011 20.3064C32.4211 20.4986 32.3039 20.6729 32.1564 20.8195C32.0086 20.9661 31.8332 21.0823 31.6405 21.1609C31.448 21.2395 31.2416 21.2791 31.0332 21.2779H24.3666C24.1586 21.2791 23.9521 21.2395 23.7596 21.1609C23.567 21.0823 23.3916 20.9661 23.2437 20.8195C23.0962 20.6729 22.9791 20.4986 22.8991 20.3064C22.8191 20.1141 22.7777 19.908 22.7777 19.7V8.9667C22.7777 8.5453 22.9452 8.14113 23.2432 7.84307C23.5413 7.5453 23.9452 7.3778 24.3666 7.3778H31.0332C31.455 7.3778 31.8589 7.5453 32.157 7.84307C32.455 8.14113 32.6221 8.5453 32.6221 8.9667V19.7Z" fill="url(#paint0_linear_111_25)"/>
</g>
<defs>
<linearGradient id="paint0_linear_111_25" x1="20.0193" y1="40" x2="20.0193" y2="0" gradientUnits="userSpaceOnUse">
<stop stop-color="#0052CC"/>
<stop offset="1" stop-color="#2684FF"/>
</linearGradient>
<clipPath id="clip0_111_25">
<rect width="40" height="40" fill="white"/>
</clipPath>
</defs>
</svg>
