<svg width="30" height="35" viewBox="0 0 30 35" fill="none" xmlns="http://www.w3.org/2000/svg">
<path d="M15.1887 23.6505C15.1887 30.501 15.576 32.3224 15.576 32.3224H8.14558C7.53004 32.3224 7.03102 32.8214 7.03102 33.4369C7.03102 34.0525 7.53004 34.5515 8.14558 34.5515H21.5204C22.1359 34.5515 22.6349 34.0525 22.6349 33.4369C22.6349 32.8214 22.1359 32.3224 21.5204 32.3224H17.8052C17.8052 32.3224 17.649 31.5878 17.535 29.2972C19.4503 29.223 21.2142 29.0789 22.7386 28.9149C26.6081 28.4987 29.6103 25.2038 29.1529 21.2056C28.5476 15.9157 26.7653 10.7867 24.2913 6.94999C21.853 3.16847 18.5517 0.37146 14.8329 0.37146C11.114 0.371458 7.81277 3.16847 5.37447 6.94999C2.90048 10.7867 1.11813 15.9157 0.512936 21.2056C0.0555103 25.2038 3.05766 28.4987 6.92721 28.9149C8.64639 29.0998 10.6704 29.2595 12.8728 29.3221C12.9254 28.2702 12.9694 26.8877 12.985 25.0936C12.4682 24.5982 11.5678 23.7236 10.2334 22.3891C8.88759 21.0432 8.00946 20.1389 7.5163 19.6244C7.20006 19.2943 7.07441 18.8244 7.35706 18.4652C7.42565 18.3779 7.5079 18.2843 7.60636 18.1859C7.70481 18.0873 7.79851 18.0052 7.88567 17.9365C8.24485 17.6538 8.7149 17.7796 9.04489 18.0958C9.55945 18.5889 10.4638 19.467 11.8097 20.8129C12.2531 21.2564 12.6458 21.6519 12.9908 22.0014C12.9892 18.1315 12.9827 15.7557 12.9786 14.6358C12.9768 14.1346 13.1395 13.602 13.6165 13.448C13.753 13.4039 13.911 13.3747 14.0899 13.3747C14.2688 13.3747 14.4268 13.4039 14.5634 13.448C15.0403 13.602 15.2031 14.1346 15.2012 14.6357C15.1992 15.2204 15.1963 16.1473 15.194 17.4503C15.5163 17.1241 15.8787 16.7593 16.2833 16.3546C17.6292 15.0088 18.5336 14.1306 19.0481 13.6375C19.3781 13.3213 19.8482 13.1956 20.2073 13.4782C20.2945 13.5469 20.3881 13.6291 20.4867 13.7276C20.5851 13.8261 20.6674 13.9197 20.7359 14.0069C21.0186 14.3661 20.893 14.8361 20.5767 15.1661C20.0836 15.6806 19.2054 16.585 17.8596 17.9309C16.5931 19.1974 15.7176 20.0496 15.1899 20.5567C15.1892 21.483 15.1887 22.5128 15.1887 23.6505Z" fill="#AD7597"/>
</svg>
