<svg width="36" height="36" viewBox="0 0 36 36" fill="none" xmlns="http://www.w3.org/2000/svg">
<path d="M18.1887 23.6505C18.1887 30.501 18.576 32.3224 18.576 32.3224H11.1456C10.53 32.3224 10.031 32.8214 10.031 33.4369C10.031 34.0525 10.53 34.5515 11.1456 34.5515H24.5204C25.1359 34.5515 25.6349 34.0525 25.6349 33.4369C25.6349 32.8214 25.1359 32.3224 24.5204 32.3224H20.8052C20.8052 32.3224 20.649 31.5878 20.535 29.2972C22.4503 29.223 24.2142 29.0789 25.7386 28.9149C29.6081 28.4987 32.6103 25.2038 32.1529 21.2056C31.5476 15.9157 29.7653 10.7867 27.2913 6.94999C24.853 3.16847 21.5517 0.37146 17.8329 0.37146C14.114 0.371458 10.8128 3.16847 8.37447 6.94999C5.90048 10.7867 4.11813 15.9157 3.51294 21.2056C3.05551 25.2038 6.05766 28.4987 9.92721 28.9149C11.6464 29.0998 13.6704 29.2595 15.8728 29.3221C15.9254 28.2702 15.9694 26.8877 15.985 25.0936C15.4682 24.5982 14.5678 23.7236 13.2334 22.3891C11.8876 21.0432 11.0095 20.1389 10.5163 19.6244C10.2001 19.2943 10.0744 18.8244 10.3571 18.4652C10.4256 18.3779 10.5079 18.2843 10.6064 18.1859C10.7048 18.0873 10.7985 18.0052 10.8857 17.9365C11.2449 17.6538 11.7149 17.7796 12.0449 18.0958C12.5594 18.5889 13.4638 19.467 14.8097 20.8129C15.2531 21.2564 15.6458 21.6519 15.9908 22.0014C15.9892 18.1315 15.9827 15.7557 15.9786 14.6358C15.9768 14.1346 16.1395 13.602 16.6165 13.448C16.753 13.4039 16.911 13.3747 17.0899 13.3747C17.2688 13.3747 17.4268 13.4039 17.5634 13.448C18.0403 13.602 18.2031 14.1346 18.2012 14.6357C18.1992 15.2204 18.1963 16.1473 18.194 17.4503C18.5163 17.1241 18.8787 16.7593 19.2833 16.3546C20.6292 15.0088 21.5336 14.1306 22.0481 13.6375C22.3781 13.3213 22.8482 13.1956 23.2073 13.4782C23.2945 13.5469 23.3881 13.6291 23.4867 13.7276C23.5851 13.8261 23.6674 13.9197 23.7359 14.0069C24.0186 14.3661 23.893 14.8361 23.5767 15.1661C23.0836 15.6806 22.2054 16.585 20.8596 17.9309C19.5931 19.1974 18.7176 20.0496 18.1899 20.5567C18.1892 21.483 18.1887 22.5128 18.1887 23.6505Z" fill="white"/>
</svg>
