<svg width="34" height="35" viewBox="0 0 34 35" fill="none" xmlns="http://www.w3.org/2000/svg">
<path d="M4.28811 1.05817C5.97861 0.936038 8.57606 0.827026 12.4665 0.827026C16.3569 0.827026 18.9543 0.93603 20.6447 1.05817C22.876 1.21936 24.5409 2.8845 24.702 5.11569C24.7454 5.71551 24.787 6.42949 24.8227 7.27493L23.8328 7.26276C23.1197 7.254 22.3542 7.24924 21.5331 7.24924C17.5959 7.24924 14.9329 7.35947 13.1641 7.48724C9.62272 7.74314 6.91575 10.4504 6.66 13.9917C6.53231 15.7604 6.42215 18.4232 6.42215 22.3603C6.42215 23.1815 6.42691 23.9468 6.43567 24.66L6.44776 25.6501C5.60266 25.6143 4.88886 25.5727 4.28915 25.5295C2.05755 25.3684 0.392084 23.7031 0.230971 21.4714C0.108912 19.7809 0 17.1836 0 13.2937C0 9.40325 0.108942 6.80594 0.231009 5.11551C0.392129 2.8844 2.057 1.21938 4.28811 1.05817Z" fill="#3C958B"/>
<path d="M9.17726 28.3792C9.21299 29.2244 9.25463 29.9384 9.29792 30.5381C9.459 32.7698 11.1245 34.4351 13.3561 34.5962C15.0466 34.7182 17.6437 34.827 21.5335 34.827C25.4231 34.827 28.0201 34.7182 29.7107 34.5962C31.9423 34.4351 33.6079 32.7697 33.769 30.538C33.8911 28.8474 34 26.2501 34 22.3604C34 18.4702 33.8911 15.8729 33.769 14.1824C33.6079 11.9512 31.9429 10.2861 29.7117 10.1249C29.1118 10.0816 28.3977 10.0399 27.5522 10.0041L27.5643 10.9941C27.5731 11.7072 27.5779 12.4726 27.5779 13.2937C27.5779 17.2302 27.4677 19.893 27.34 21.6617C27.0843 25.2039 24.3764 27.9115 20.8344 28.1671C19.0658 28.2947 16.4032 28.4048 12.4669 28.4048C11.6458 28.4048 10.8804 28.4001 10.1673 28.3913L9.17726 28.3792Z" fill="#3C958B"/>
<path d="M21.5336 9.89378C17.6431 9.89378 15.0457 10.0028 13.3551 10.1249C11.124 10.2861 9.45916 11.9511 9.29808 14.1822C9.17599 15.8727 9.06704 18.47 9.06704 22.3604C9.06704 23.1713 9.0718 23.9259 9.08033 24.6277C9.08789 25.2428 9.58466 25.7396 10.1998 25.7471C10.9016 25.7557 11.6561 25.7604 12.467 25.7604C16.3566 25.7604 18.9537 25.6515 20.6442 25.5296C22.8759 25.3685 24.5414 23.7031 24.7026 21.4714C24.8246 19.7808 24.9335 17.1835 24.9335 13.2938C24.9335 12.4829 24.9288 11.7283 24.9202 11.0265C24.9127 10.4114 24.4159 9.91463 23.8008 9.90707C23.099 9.89854 22.3444 9.89378 21.5336 9.89378Z" fill="#3C958B"/>
</svg>
