<svg width="40" height="40" viewBox="0 0 40 40" fill="none" xmlns="http://www.w3.org/2000/svg">
<path fill-rule="evenodd" clip-rule="evenodd" d="M1.45043e-06 20C4.84788e-07 31.0457 8.95431 40 20 40C31.0457 40 40 31.0457 40 20C40 8.95431 31.0457 -1.08083e-06 20 -2.04648e-06C8.95431 -3.01212e-06 2.41608e-06 8.95431 1.45043e-06 20ZM19.8698 19.6859C19.6963 19.8595 19.6963 20.1409 19.8699 20.3144L25.6462 26.0907C26.5081 26.9525 26.6852 28.3008 25.9035 29.236C25.2806 29.9812 24.538 30.7234 23.7775 31.2582C22.882 31.888 21.7315 31.5927 20.9171 30.8609C18.0073 28.246 14.1596 24.3469 12.2252 21.7845C11.4079 20.702 11.4079 19.2982 12.2251 18.2157C14.1596 15.6532 18.0073 11.754 20.9171 9.13911C21.7315 8.40729 22.882 8.112 23.7775 8.74178C24.5381 9.27671 25.2806 10.0188 25.9036 10.7641C26.6852 11.6992 26.5081 13.0475 25.6463 13.9093L19.8698 19.6859Z" fill="#F7F7F7"/>
</svg>
