<svg width="34" height="34" viewBox="0 0 34 34" fill="none" xmlns="http://www.w3.org/2000/svg">
<path fill-rule="evenodd" clip-rule="evenodd" d="M2.97019 0.762578C4.60054 0.397736 7.6373 0 13.1688 0C18.7003 0 21.737 0.397736 23.3674 0.762578C24.9087 1.10752 25.7783 2.41697 25.9364 3.79637C26.0235 4.55559 26.1215 5.55421 26.199 6.72841C25.287 6.45011 24.2841 6.16099 23.1811 5.86193C17.752 4.3899 14.5431 3.93655 12.6503 3.85194C9.91392 3.7296 7.97555 5.5556 7.19445 7.55009C6.60411 9.05776 5.7063 11.543 4.91108 14.5461C4.24448 17.0634 4.10262 19.6758 4.47666 22.2006C1.60716 19.2336 0 15.1488 0 10.8887C0 7.88977 0.223636 5.34504 0.401151 3.79637C0.559267 2.41697 1.42881 1.10752 2.97019 0.762578ZM22.5964 8.06879C17.2534 6.62013 14.2184 6.20899 12.5502 6.13442C10.9731 6.06391 9.79833 7.10099 9.2928 8.39203C8.72519 9.84145 7.85831 12.2409 7.0912 15.1376C5.58392 20.8299 7.13304 27.0033 11.4948 31.01C12.8407 32.2463 14.3814 33.4323 15.7797 33.8115C17.178 34.1906 19.0984 33.943 20.8748 33.5533C26.632 32.2902 31.0241 27.7276 32.5313 22.0354C33.2984 19.1386 33.7333 16.622 33.9579 15.0796C34.158 13.7058 33.653 12.2132 32.2525 11.4764C30.7709 10.697 27.9394 9.51745 22.5964 8.06879ZM23.3124 17.6781C22.745 17.9834 22.094 18.1458 21.6252 17.5249C21.2322 17.0044 21.3717 16.2569 21.8858 15.8876C21.9533 15.8391 22.0772 15.7555 22.2528 15.6611C22.4852 15.536 22.8159 15.3881 23.2254 15.2861C24.064 15.0771 25.2066 15.0712 26.4292 15.7854C27.6517 16.4997 28.2179 17.5039 28.4584 18.3433C28.5758 18.7531 28.6146 19.1169 28.6238 19.3831C28.6307 19.5841 28.6212 19.7345 28.6134 19.818C28.5543 20.4532 27.9843 20.9491 27.3424 20.865C26.5766 20.7646 26.3901 20.113 26.3676 19.4631C26.3635 19.3447 26.3457 19.173 26.2902 18.9794C26.1849 18.6118 25.9398 18.1373 25.3004 17.7637C24.661 17.3902 24.1323 17.4127 23.7651 17.5042C23.5716 17.5524 23.4158 17.6226 23.3124 17.6781ZM19.3495 15.2005C19.612 15.7802 19.3636 16.4984 18.7661 16.7503C18.0533 17.0509 17.5698 16.5808 17.2292 16.0294C17.1671 15.9289 17.0669 15.7894 16.9232 15.6497C16.6503 15.3847 16.2036 15.0977 15.4653 15.0977C14.7269 15.0977 14.2802 15.3847 14.0074 15.6497C13.8636 15.7894 13.7634 15.9289 13.7013 16.0294C13.6608 16.0951 13.6387 16.1407 13.6342 16.1505C13.3893 16.7223 12.7349 16.9909 12.1645 16.7503C11.5669 16.4984 11.3185 15.7804 11.5811 15.2005C11.5926 15.1751 11.6076 15.1431 11.6264 15.1056C11.6639 15.0306 11.7168 14.9324 11.787 14.8187C11.9266 14.5928 12.1398 14.2973 12.444 14.0018C13.067 13.3966 14.0536 12.8134 15.4653 12.8134C16.877 12.8134 17.8636 13.3966 18.4866 14.0018C18.7907 14.2973 19.004 14.5928 19.1436 14.8187C19.2489 14.9893 19.315 15.1243 19.3495 15.2005ZM13.3529 20.6368C13.9698 20.545 14.5432 20.9766 14.6338 21.6007C14.7862 22.6494 15.2447 23.8171 15.8698 24.7697C16.5183 25.7577 17.212 26.316 17.7287 26.4561C18.2455 26.5962 19.1221 26.4637 20.1718 25.9361C21.1838 25.4274 22.158 24.6481 22.8081 23.817C23.1951 23.3223 23.905 23.2388 24.3938 23.6303C24.8825 24.0219 24.9651 24.7402 24.5782 25.2348C23.7021 26.3547 22.4565 27.3384 21.176 27.982C19.9334 28.6066 18.4448 29.0152 17.1444 28.6626C15.844 28.3101 14.7568 27.203 13.9892 26.0334C13.1983 24.8283 12.6056 23.3461 12.4003 21.9329C12.3097 21.3088 12.7362 20.7285 13.3529 20.6368Z" fill="#2C5D6F"/>
</svg>
