<svg width="34" height="34" viewBox="0 0 34 34" fill="none" xmlns="http://www.w3.org/2000/svg">
<path fill-rule="evenodd" clip-rule="evenodd" d="M24.4997 0.942396C25.1869 -0.314135 26.9915 -0.314129 27.6788 0.942396L29.1222 3.58152C29.4214 4.12871 29.8713 4.5786 30.4185 4.87787L33.0576 6.32125C34.3141 7.00851 34.3141 8.81315 33.0576 9.50038L30.4185 10.9438C29.8713 11.243 29.4214 11.6929 29.1222 12.2401L27.6787 14.8792C26.9915 16.1357 25.1869 16.1357 24.4997 14.8792L23.0563 12.2401C22.757 11.6929 22.3071 11.243 21.7599 10.9438L19.1208 9.50031C17.8642 8.81315 17.8642 7.00851 19.1208 6.32125L21.7599 4.87787C22.3071 4.5786 22.757 4.12871 23.0563 3.58152L24.4997 0.942396ZM20.2163 3.24406L18.0776 4.4138C15.3132 5.92567 15.3131 9.89592 18.0776 11.4078L20.7167 12.8512C20.8991 12.951 21.0491 13.1009 21.1488 13.2833L22.5922 15.9224C23.4114 17.4203 24.9524 18.1065 26.433 17.9812C25.7148 20.9273 24.0232 23.4919 21.7206 25.3142C21.5861 25.7946 21.4545 26.2368 21.3398 26.6102C20.9984 27.7216 20.0533 28.5731 18.8379 28.7C17.7849 28.8099 16.0444 28.9271 13.407 28.9271C10.7696 28.9271 9.02904 28.8099 7.97605 28.7C6.76066 28.5731 5.81551 27.7216 5.47408 26.6102C5.35938 26.2368 5.22783 25.7946 5.09335 25.3142C1.99256 22.8603 0 19.0605 0 14.7955C0 7.391 6.0025 1.38854 13.407 1.38854C15.8928 1.38854 18.2206 2.06507 20.2163 3.24406ZM7.20947 30.4056C7.39731 30.449 7.5903 30.4813 7.78785 30.5019C8.91273 30.6194 10.7169 30.7389 13.4069 30.7389C16.097 30.7389 17.9011 30.6194 19.0259 30.5019C19.2891 30.4745 19.544 30.4262 19.7895 30.359L19.766 30.5761C19.596 32.1453 18.4711 33.5677 16.7496 33.7937C15.8869 33.9069 14.7647 34 13.4069 34C11.979 34 10.8715 33.8971 10.0576 33.774C8.55937 33.5473 7.57341 32.3572 7.32281 31.0223C7.28679 30.8305 7.24882 30.6242 7.20947 30.4056Z" fill="#AD7597"/>
</svg>
