<svg width="40" height="40" viewBox="0 0 40 40" fill="none" xmlns="http://www.w3.org/2000/svg">
<path fill-rule="evenodd" clip-rule="evenodd" d="M16.9495 0.673339C18.8859 -0.224446 21.1141 -0.224446 23.0505 0.673339C29.9533 3.87384 35.0961 8.45228 37.5725 10.922C38.9078 12.2537 39.6213 14.0293 39.7214 15.8609C39.8448 18.1178 40 21.7773 40 25.9056C40 28.8189 39.9227 31.4981 39.834 33.615C39.6916 37.0076 37.0166 39.6689 33.6762 39.7849C30.5852 39.8922 25.9905 40 20 40C14.0095 40 9.41476 39.8922 6.32383 39.7849C2.98342 39.6689 0.308338 37.0076 0.166071 33.615C0.0772978 31.4981 0 28.8189 0 25.9056C0 21.7773 0.155227 18.1178 0.278569 15.8609C0.378658 14.0293 1.09215 12.2537 2.42748 10.922C4.90394 8.45228 10.0467 3.87384 16.9495 0.673339ZM12.8889 30.5481C11.907 30.5481 11.1111 31.3541 11.1111 32.3485C11.1111 33.3428 11.907 34.1488 12.8889 34.1488H27.1111C28.093 34.1488 28.8889 33.3428 28.8889 32.3485C28.8889 31.3541 28.093 30.5481 27.1111 30.5481H12.8889Z" fill="#F7F7F7"/>
</svg>
