<svg width="34" height="34" viewBox="0 0 34 34" fill="none" xmlns="http://www.w3.org/2000/svg">
<path d="M26.9079 24.5267C24.1096 27.4994 20.9785 29.5341 19.5108 30.4101C17.9738 31.3275 16.0251 31.3275 14.4881 30.4101C13.0204 29.5341 9.88921 27.4994 7.09093 24.5267C6.57624 23.9799 6.06285 23.3906 5.56795 22.7608C5.54605 22.7619 5.52438 22.7631 5.50295 22.7642C4.11388 22.8376 2.82613 23.5611 2.17214 24.7836C1.56528 25.9182 0.731148 27.6995 0.116337 29.8805C-0.454553 31.9058 1.15222 33.7291 3.26184 33.8101C5.60974 33.9003 9.82695 34 17 34C24.1731 34 28.3903 33.9003 30.7382 33.8101C32.8478 33.7291 34.4545 31.9058 33.8837 29.8805C33.2689 27.6995 32.4347 25.9182 31.8279 24.7836C31.1739 23.5611 29.8861 22.8376 28.4971 22.7642C28.4753 22.7631 28.4532 22.7619 28.4309 22.7607C27.9361 23.3906 27.4227 23.9799 26.9079 24.5267Z" fill="#B47C5F"/>
<path fill-rule="evenodd" clip-rule="evenodd" d="M4.01245 12.2779C4.01245 5.50036 9.82338 0 16.9994 0C24.1754 0 29.9864 5.50036 29.9864 12.2779C29.9864 16.6023 27.6662 20.2646 25.0854 23.0063C22.499 25.7539 19.5782 27.6555 18.2068 28.4739C17.4658 28.9162 16.533 28.9162 15.792 28.4739C14.4206 27.6555 11.4998 25.7539 8.91341 23.0063C6.33265 20.2646 4.01245 16.6023 4.01245 12.2779ZM16.9994 16.8088C19.6891 16.8088 21.8695 14.7564 21.8695 12.2246C21.8695 9.69282 19.6891 7.64038 16.9994 7.64038C14.3097 7.64038 12.1293 9.69282 12.1293 12.2246C12.1293 14.7564 14.3097 16.8088 16.9994 16.8088Z" fill="#B47C5F"/>
</svg>
