<svg width="34" height="34" viewBox="0 0 34 34" fill="none" xmlns="http://www.w3.org/2000/svg">
<path fill-rule="evenodd" clip-rule="evenodd" d="M12.502 0.248344C11.4507 0.110508 9.9644 0 7.89757 0C5.83074 0 4.34447 0.110508 3.29311 0.248344C1.41322 0.494813 0.211264 1.99721 0.103308 3.78259C0.0453471 4.74117 0 6.08203 0 7.93333C0 9.78467 0.0453471 11.1255 0.103308 12.0841C0.211264 13.8694 1.41322 15.3719 3.29311 15.6183C4.34447 15.7561 5.83074 15.8667 7.89757 15.8667C9.9644 15.8667 11.4507 15.7561 12.502 15.6183C14.3819 15.3719 15.5839 13.8694 15.6919 12.0841C15.7498 11.1255 15.7951 9.78467 15.7951 7.93333C15.7951 6.08203 15.7498 4.74117 15.6919 3.78259C15.5839 1.99721 14.3819 0.494813 12.502 0.248344ZM7.89757 18.1333C3.53586 18.1333 0 21.6852 0 26.0667C0 30.4481 3.53586 34 7.89757 34C12.2593 34 15.7951 30.4481 15.7951 26.0667C15.7951 21.6852 12.2593 18.1333 7.89757 18.1333ZM18.4277 20.7778C18.4277 19.9432 19.1011 19.2667 19.932 19.2667H31.9664C32.7972 19.2667 33.4707 19.9432 33.4707 20.7778C33.4707 21.6124 32.7972 22.2889 31.9664 22.2889H19.932C19.1011 22.2889 18.4277 21.6124 18.4277 20.7778ZM19.932 24.5556C19.1011 24.5556 18.4277 25.2321 18.4277 26.0667C18.4277 26.9013 19.1011 27.5778 19.932 27.5778H31.9664C32.7972 27.5778 33.4707 26.9013 33.4707 26.0667C33.4707 25.2321 32.7972 24.5556 31.9664 24.5556H19.932ZM18.4277 31.3556C18.4277 30.521 19.1011 29.8444 19.932 29.8444H31.9664C32.7972 29.8444 33.4707 30.521 33.4707 31.3556C33.4707 32.1901 32.7972 32.8667 31.9664 32.8667H19.932C19.1011 32.8667 18.4277 32.1901 18.4277 31.3556ZM23.537 1.47404C24.7781 -0.113726 27.0974 -0.114187 28.339 1.47341C29.1981 2.57186 30.3064 4.11847 31.3904 6.00463C32.4741 7.89004 33.2533 9.62646 33.7709 10.9225C34.5195 12.7967 33.3594 14.8149 31.3695 15.1008C29.993 15.2985 28.106 15.4889 25.9386 15.4889C23.7709 15.4889 21.8841 15.2985 20.5078 15.1007C18.5182 14.8148 17.3583 12.7971 18.1064 10.9231C18.6239 9.62699 19.403 7.89027 20.4868 6.00463C21.5707 4.11881 22.6784 2.57243 23.537 1.47404Z" fill="#459A73"/>
</svg>
