<svg width="28" height="34" viewBox="0 0 28 34" fill="none" xmlns="http://www.w3.org/2000/svg">
<path d="M14.3468 23.1564C14.3468 29.9709 14.7242 31.7826 14.7242 31.7826H7.4831C6.88325 31.7826 6.39694 32.279 6.39694 32.8913C6.39694 33.5036 6.88325 34 7.4831 34H20.5171C21.1169 34 21.6032 33.5036 21.6032 32.8913C21.6032 32.279 21.1169 31.7826 20.5171 31.7826H16.8965C16.8965 31.7826 16.7443 31.0519 16.6332 28.7734C18.4998 28.6996 20.2187 28.5562 21.7042 28.3931C25.4751 27.9791 28.4008 24.7016 27.955 20.7244C27.3653 15.4624 25.6283 10.3604 23.2174 6.54388C20.8412 2.78228 17.624 0 14 0C10.3759 -1.47826e-06 7.15878 2.78228 4.78261 6.54388C2.37166 10.3604 0.634735 15.4624 0.0449631 20.7244C-0.400806 24.7016 2.52484 27.9791 6.29578 28.3931C7.97115 28.5771 9.94363 28.7359 12.0898 28.7981C12.1412 27.7518 12.1839 26.3765 12.1992 24.5919C11.6956 24.0991 10.8181 23.2291 9.5177 21.9017C8.2062 20.5629 7.35045 19.6633 6.86986 19.1515C6.56168 18.8232 6.43923 18.3557 6.71468 17.9984C6.78151 17.9116 6.86167 17.8185 6.95762 17.7206C7.05356 17.6226 7.14487 17.5408 7.22981 17.4725C7.57984 17.1914 8.03792 17.3164 8.35949 17.631C8.86094 18.1215 9.74225 18.995 11.0538 20.3338C11.486 20.775 11.8687 21.1684 12.2048 21.516C12.2033 17.6665 12.1969 15.3032 12.1929 14.1892C12.1912 13.6906 12.3498 13.1608 12.8146 13.0077C12.9477 12.9638 13.1016 12.9348 13.276 12.9348C13.4503 12.9348 13.6042 12.9638 13.7374 13.0077C14.2021 13.1608 14.3608 13.6906 14.359 14.1891C14.3569 14.7707 14.3542 15.6927 14.3519 16.9889C14.666 16.6644 15.0191 16.3015 15.4135 15.899C16.7251 14.5602 17.6064 13.6867 18.1078 13.1962C18.4294 12.8816 18.8875 12.7566 19.2375 13.0377C19.3224 13.106 19.4137 13.1878 19.5097 13.2858C19.6056 13.3837 19.6858 13.4769 19.7526 13.5636C20.0281 13.9209 19.9056 14.3884 19.5974 14.7168C19.1169 15.2285 18.2611 16.1281 16.9496 17.4669C15.7154 18.7268 14.8621 19.5745 14.3479 20.0789C14.3472 21.0003 14.3468 22.0247 14.3468 23.1564Z" fill="#4E8B9F"/>
</svg>
