<svg width="40" height="40" viewBox="0 0 40 40" fill="none" xmlns="http://www.w3.org/2000/svg">
<path fill-rule="evenodd" clip-rule="evenodd" d="M40 20C40 8.95431 31.0457 0 20 0C8.95431 0 0 8.95431 0 20C0 31.0457 8.95431 40 20 40C31.0457 40 40 31.0457 40 20ZM20.1302 20.3141C20.3037 20.1405 20.3037 19.8591 20.1301 19.6856L14.3538 13.9093C13.4919 13.0475 13.3148 11.6992 14.0965 10.764C14.7194 10.0188 15.462 9.27662 16.2225 8.74178C17.118 8.112 18.2685 8.40729 19.0829 9.13911C21.9927 11.754 25.8404 15.6531 27.7748 18.2155C28.5921 19.298 28.5921 20.7018 27.7749 21.7843C25.8404 24.3468 21.9927 28.246 19.0829 30.8609C18.2685 31.5927 17.118 31.888 16.2225 31.2582C15.4619 30.7233 14.7194 29.9812 14.0964 29.2359C13.3148 28.3008 13.4919 26.9525 14.3537 26.0907L20.1302 20.3141Z" fill="#F7F7F7"/>
</svg>
