<svg width="40" height="36" viewBox="0 0 40 36" fill="none" xmlns="http://www.w3.org/2000/svg">
<path fill-rule="evenodd" clip-rule="evenodd" d="M17.3479 0.891496C18.9156 -0.297172 21.0847 -0.297169 22.6524 0.891525L24.5819 2.35454C30.2497 6.65207 35.1049 11.9231 38.9206 17.9206L39.5397 18.8935C40.7757 20.8362 39.3775 23.3759 37.0719 23.3759H35.0511C35.168 26.0577 35.0213 28.7478 34.6109 31.407C34.2034 34.0496 31.9256 36 29.2471 36H23.9041C23.766 36 23.6541 35.8881 23.6541 35.75V26.381C23.6541 24.3665 22.0181 22.7335 20.0001 22.7335C17.982 22.7335 16.346 24.3665 16.346 26.381V35.75C16.346 35.8881 16.2341 36 16.096 36H10.7532C8.07485 36 5.79696 34.0496 5.38932 31.407C4.97908 28.7478 4.83227 26.0577 4.9492 23.3759H2.92794C0.622461 23.3759 -0.775676 20.8362 0.46033 18.8934L1.07941 17.9204C4.89506 11.923 9.7505 6.6521 15.4181 2.35469L17.3479 0.891496Z" fill="white"/>
</svg>
