<svg width="34" height="34" viewBox="0 0 34 34" fill="none" xmlns="http://www.w3.org/2000/svg">
<path fill-rule="evenodd" clip-rule="evenodd" d="M29.4277 13.6408C29.4194 13.1217 29.4096 12.6231 29.3975 12.1434C28.8659 12.1434 28.1947 12.1419 27.4645 12.1343C25.7498 12.1168 23.6568 12.0675 22.2795 11.9347C19.7629 11.6918 17.8058 9.67601 17.5634 7.13425C17.4313 5.74914 17.386 3.66199 17.3717 1.95585C17.3656 1.22572 17.3656 0.55556 17.3671 0.0265637C16.5418 0.00986649 15.6607 0 14.7237 0C9.95546 0 6.66415 0.245145 4.59227 0.483459C2.40637 0.733917 0.745999 2.40439 0.505135 4.60538C0.258985 6.84736 0 10.5723 0 16.3177C0 22.063 0.258985 25.788 0.505135 28.03C0.746754 30.231 2.40637 31.9007 4.59227 32.1519C6.51918 32.3735 9.50091 32.6012 13.7443 32.6316V32.5443C13.7466 30.8541 13.8455 29.5988 13.9535 28.7305C14.1272 27.3378 14.8218 26.1956 15.6524 25.3607L25.9076 15.0517C26.7246 14.2305 28.0195 13.546 29.4277 13.6408ZM13.5337 6.46408C13.7324 6.17726 13.8106 5.82326 13.7514 5.47886C13.6921 5.13445 13.5002 4.82739 13.2173 4.62426C12.9343 4.42113 12.5831 4.3383 12.2398 4.39372C11.8965 4.44915 11.5887 4.63837 11.3833 4.92035L8.51405 8.95727L6.59695 7.02951C6.47504 6.90268 6.32921 6.80152 6.16799 6.73195C6.00676 6.66237 5.83337 6.62577 5.65792 6.62427C5.48247 6.62278 5.30848 6.65642 5.14611 6.72323C4.98373 6.79005 4.83622 6.8887 4.71218 7.01343C4.58814 7.13816 4.49005 7.28648 4.42365 7.44972C4.35724 7.61296 4.32384 7.78786 4.3254 7.96422C4.32696 8.14057 4.36345 8.31485 4.43273 8.47688C4.50202 8.63891 4.60271 8.78545 4.72894 8.90794L7.74917 11.9438C7.88485 12.0801 8.04845 12.1851 8.22858 12.2515C8.40871 12.3179 8.60106 12.3441 8.79226 12.3282C8.98347 12.3123 9.16893 12.2547 9.33577 12.1595C9.50261 12.0643 9.64683 11.9337 9.75839 11.7768L13.5337 6.46408ZM13.2264 12.96C13.5115 13.1648 13.7041 13.475 13.7617 13.8224C13.8193 14.1698 13.7373 14.526 13.5337 14.8127L9.75839 20.1254C9.64683 20.2823 9.50261 20.4129 9.33577 20.5081C9.16893 20.6033 8.98347 20.6609 8.79226 20.6768C8.60106 20.6926 8.40871 20.6665 8.22858 20.6001C8.04845 20.5337 7.88485 20.4287 7.74917 20.2924L4.72894 17.2565C4.60088 17.1345 4.49844 16.9879 4.42767 16.8254C4.3569 16.6629 4.31923 16.4878 4.31688 16.3104C4.31454 16.133 4.34757 15.957 4.41402 15.7926C4.48047 15.6283 4.57899 15.479 4.70378 15.3536C4.82857 15.2281 4.97709 15.1291 5.14058 15.0623C5.30407 14.9955 5.47921 14.9623 5.65568 14.9647C5.83214 14.967 6.00634 15.0049 6.16801 15.076C6.32967 15.1472 6.47553 15.2501 6.59695 15.3789L8.51481 17.3059L11.3833 13.2682C11.5871 12.9817 11.8957 12.7883 12.2413 12.7305C12.587 12.6727 12.9413 12.7553 13.2264 12.96ZM19.6368 1.93687C19.6512 3.64833 19.6972 5.64289 19.818 6.91718C19.96 8.40323 21.0896 9.53257 22.4955 9.66842C23.764 9.79061 25.7672 9.83995 27.4872 9.85816C28.0935 9.86423 28.6575 9.86575 29.134 9.86575C28.6862 8.80852 27.5989 6.87316 25.0325 4.34354C22.614 1.9604 20.7332 0.874325 19.6315 0.389348C19.6315 0.843207 19.6323 1.37144 19.6368 1.93687ZM33.2581 22.4395C33.9467 21.7473 34.2472 20.7508 33.7617 19.9015C33.4287 19.3186 32.9138 18.5946 32.124 17.8015C31.335 17.0076 30.6139 16.49 30.0348 16.1545C29.1898 15.6665 28.1984 15.9693 27.5098 16.6623L26.0888 18.0899C26.8877 18.5377 27.9304 19.2663 29.0955 20.4366C30.3277 21.6752 31.0669 22.7757 31.5041 23.5939C31.5811 23.7381 31.6476 23.8732 31.7072 23.9984L33.2581 22.4395ZM24.8837 20.0222C24.7261 19.9368 24.5649 19.8583 24.4005 19.7869L17.2546 26.9705C16.6974 27.5298 16.2987 28.2273 16.2013 29.0121C16.1054 29.7832 16.011 30.9459 16.0088 32.5481C16.0083 32.7389 16.0453 32.9279 16.1177 33.1043C16.1901 33.2807 16.2965 33.4409 16.4307 33.5759C16.5649 33.7108 16.7244 33.8177 16.8999 33.8905C17.0753 33.9633 17.2634 34.0005 17.4532 34C19.0471 33.997 20.2039 33.9028 20.9703 33.8065C21.7518 33.7078 22.4457 33.3078 23.0021 32.7477L29.9562 25.7577C29.9221 25.683 29.896 25.6049 29.8785 25.5247C29.863 25.4725 29.8459 25.4209 29.8271 25.3698C29.7372 25.1297 29.6307 24.8961 29.5085 24.6708C29.1763 24.0485 28.5692 23.1279 27.494 22.0471C26.418 20.9656 25.5021 20.3561 24.8837 20.0222Z" fill="#CD668F"/>
</svg>
