<svg width="31" height="35" viewBox="0 0 31 35" fill="none" xmlns="http://www.w3.org/2000/svg">
<path fill-rule="evenodd" clip-rule="evenodd" d="M0.229492 15.2478C0.229492 7.23706 6.94518 0.743164 15.2295 0.743164C23.5138 0.743164 30.2295 7.23706 30.2295 15.2478C30.2295 20.4452 27.456 24.8172 24.4404 28.0437C21.4154 31.2803 18.0354 33.4856 16.5653 34.3708C15.7407 34.8673 14.7183 34.8673 13.8936 34.3708C12.4236 33.4856 9.04357 31.2803 6.01857 28.0437C3.00303 24.8172 0.229492 20.4452 0.229492 15.2478ZM7.30472 13.2635C8.06765 9.90197 12.2896 8.51079 14.9346 10.7803C15.0361 10.8669 15.1352 10.9629 15.2299 11.0582C15.3246 10.9629 15.4236 10.8669 15.5252 10.7803C18.1702 8.51079 22.3922 9.90197 23.155 13.2634C23.659 15.3557 22.8651 17.1682 21.6249 18.685C20.39 20.1955 18.6788 21.4557 17.262 22.4662C16.0566 23.3259 14.4032 23.3259 13.1979 22.4662C11.781 21.4557 10.0699 20.1955 8.83488 18.685C7.59472 17.1682 6.8008 15.3557 7.30472 13.2635Z" fill="#C8B86A"/>
</svg>
