<svg width="36" height="36" viewBox="0 0 36 36" fill="none" xmlns="http://www.w3.org/2000/svg">
<path d="M5.33141 1.42581C6.99394 1.30569 9.5484 1.19849 13.3745 1.19849C17.2005 1.19849 19.7549 1.30569 21.4173 1.4258C23.6117 1.58433 25.2491 3.22189 25.4075 5.41614C25.4501 6.00603 25.4911 6.70819 25.5262 7.53963L24.5526 7.52766C23.8513 7.51904 23.0986 7.51436 22.291 7.51436C18.419 7.51436 15.8001 7.62277 14.0605 7.74842C10.5777 8.00009 7.91556 10.6625 7.66404 14.1452C7.53847 15.8846 7.43013 18.5033 7.43013 22.3752C7.43013 23.1828 7.43481 23.9355 7.44343 24.6368L7.45532 25.6105C6.62421 25.5754 5.92221 25.5344 5.33243 25.4919C3.13776 25.3335 1.49985 23.6958 1.34141 21.5011C1.22137 19.8385 1.11426 17.2843 1.11426 13.4587C1.11426 9.63271 1.2214 7.0784 1.34144 5.41596C1.4999 3.2218 3.13722 1.58434 5.33141 1.42581Z" fill="white"/>
<path d="M10.1396 28.2945C10.1748 29.1257 10.2157 29.8278 10.2583 30.4176C10.4167 32.6124 12.0547 34.2501 14.2494 34.4085C15.9118 34.5285 18.466 34.6355 22.2914 34.6355C26.1167 34.6355 28.6707 34.5285 30.3333 34.4085C32.528 34.2501 34.166 32.6123 34.3245 30.4175C34.4445 28.7549 34.5516 26.2006 34.5516 22.3753C34.5516 18.5495 34.4445 15.9952 34.3244 14.3327C34.166 12.1385 32.5286 10.5009 30.3343 10.3424C29.7443 10.2998 29.042 10.2588 28.2105 10.2236L28.2224 11.1972C28.2311 11.8985 28.2357 12.6512 28.2357 13.4588C28.2357 17.33 28.1274 19.9487 28.0018 21.6882C27.7503 25.1718 25.0873 27.8345 21.6039 28.0859C19.8645 28.2114 17.246 28.3197 13.3749 28.3197C12.5673 28.3197 11.8146 28.315 11.1133 28.3064L10.1396 28.2945Z" fill="white"/>
<path d="M22.2915 10.1151C18.4654 10.1151 15.911 10.2223 14.2484 10.3424C12.0542 10.501 10.4169 12.1384 10.2585 14.3326C10.1384 15.995 10.0312 18.5493 10.0312 22.3753C10.0312 23.1728 10.0359 23.9149 10.0443 24.6051C10.0518 25.21 10.5403 25.6985 11.1452 25.706C11.8354 25.7144 12.5775 25.719 13.3749 25.719C17.2002 25.719 19.7543 25.612 21.4168 25.492C23.6116 25.3336 25.2495 23.6958 25.408 21.501C25.528 19.8384 25.6352 17.2842 25.6352 13.4588C25.6352 12.6614 25.6305 11.9193 25.6221 11.2291C25.6147 10.6242 25.1261 10.1356 24.5212 10.1282C23.831 10.1198 23.0889 10.1151 22.2915 10.1151Z" fill="white"/>
</svg>
