<svg width="34" height="34" viewBox="0 0 34 34" fill="none" xmlns="http://www.w3.org/2000/svg">
<path d="M4.33141 0.425806C5.99394 0.305693 8.5484 0.198486 12.3745 0.198486C16.2005 0.198486 18.7549 0.305685 20.4173 0.425798C22.6117 0.584327 24.2491 2.22189 24.4075 4.41614C24.4501 5.00603 24.4911 5.70819 24.5262 6.53963L23.5526 6.52766C22.8513 6.51904 22.0986 6.51436 21.291 6.51436C17.419 6.51436 14.8001 6.62277 13.0605 6.74842C9.57774 7.00009 6.91556 9.66249 6.66404 13.1452C6.53847 14.8846 6.43013 17.5033 6.43013 21.3752C6.43013 22.1828 6.43481 22.9355 6.44343 23.6368L6.45532 24.6105C5.62421 24.5754 4.92221 24.5344 4.33243 24.4919C2.13776 24.3335 0.499853 22.6958 0.341406 20.5011C0.221368 18.8385 0.114258 16.2843 0.114258 12.4587C0.114258 8.63271 0.221397 6.0784 0.341444 4.41596C0.499898 2.2218 2.13722 0.584342 4.33141 0.425806Z" fill="#3C958B"/>
<path d="M9.13965 27.2945C9.17479 28.1257 9.21574 28.8278 9.25831 29.4176C9.41673 31.6124 11.0547 33.2501 13.2494 33.4085C14.9118 33.5285 17.466 33.6355 21.2914 33.6355C25.1167 33.6355 27.6707 33.5285 29.3333 33.4085C31.528 33.2501 33.166 31.6123 33.3245 29.4175C33.4445 27.7549 33.5516 25.2006 33.5516 21.3753C33.5516 17.5495 33.4445 14.9952 33.3244 13.3327C33.166 11.1385 31.5286 9.50094 29.3343 9.34237C28.7443 9.29979 28.042 9.25878 27.2105 9.22363L27.2224 10.1972C27.2311 10.8985 27.2357 11.6512 27.2357 12.4588C27.2357 16.33 27.1274 18.9487 27.0018 20.6882C26.7503 24.1717 24.0873 26.8345 20.6039 27.0859C18.8645 27.2114 16.246 27.3197 12.3749 27.3197C11.5673 27.3197 10.8146 27.315 10.1133 27.3064L9.13965 27.2945Z" fill="#3C958B"/>
<path d="M21.2915 9.11511C17.4654 9.11511 14.911 9.22233 13.2484 9.34241C11.0542 9.50097 9.41689 11.1384 9.25847 13.3326C9.1384 14.995 9.03125 17.5493 9.03125 21.3753C9.03125 22.1728 9.03593 22.9149 9.04433 23.6051C9.05176 24.21 9.54031 24.6985 10.1452 24.706C10.8354 24.7144 11.5775 24.719 12.3749 24.719C16.2002 24.719 18.7543 24.612 20.4168 24.492C22.6116 24.3336 24.2495 22.6958 24.408 20.501C24.528 18.8384 24.6352 16.2842 24.6352 12.4588C24.6352 11.6614 24.6305 10.9193 24.6221 10.2291C24.6147 9.62417 24.1261 9.13562 23.5212 9.12819C22.831 9.11979 22.0889 9.11511 21.2915 9.11511Z" fill="#3C958B"/>
</svg>
