<svg width="30" height="35" viewBox="0 0 30 35" fill="none" xmlns="http://www.w3.org/2000/svg">
<path fill-rule="evenodd" clip-rule="evenodd" d="M0.34375 14.604C0.34375 6.6017 6.83082 0.114624 14.8331 0.114624C22.8354 0.114624 29.3225 6.6017 29.3225 14.604C29.3225 19.7959 26.6434 24.1633 23.7305 27.3864C20.8084 30.6196 17.5435 32.8226 16.1235 33.7069C15.3269 34.2029 14.3393 34.2029 13.5427 33.7069C12.1227 32.8226 8.85777 30.6196 5.93575 27.3864C3.02287 24.1633 0.34375 19.7959 0.34375 14.604ZM7.17812 12.6218C7.91507 9.2638 11.9933 7.87409 14.5482 10.1412C14.6463 10.2278 14.742 10.3236 14.8335 10.4188C14.9249 10.3236 15.0207 10.2278 15.1187 10.1412C17.6737 7.87409 21.752 9.2638 22.4888 12.6217C22.9757 14.7118 22.2088 16.5224 21.0108 18.0376C19.8179 19.5465 18.165 20.8054 16.7964 21.8148C15.6321 22.6736 14.0349 22.6736 12.8707 21.8148C11.502 20.8054 9.84914 19.5465 8.65618 18.0376C7.45825 16.5224 6.69135 14.7118 7.17812 12.6218Z" fill="#CD668F"/>
</svg>
