<svg width="36" height="36" viewBox="0 0 36 36" fill="none" xmlns="http://www.w3.org/2000/svg">
<g clip-path="url(#clip0_85_2)">
<path fill-rule="evenodd" clip-rule="evenodd" d="M3.34375 15.604C3.34375 7.6017 9.83082 1.11462 17.8331 1.11462C25.8354 1.11462 32.3225 7.6017 32.3225 15.604C32.3225 20.7959 29.6434 25.1633 26.7305 28.3864C23.8084 31.6196 20.5435 33.8226 19.1235 34.7069C18.3269 35.2029 17.3393 35.2029 16.5427 34.7069C15.1227 33.8226 11.8578 31.6196 8.93575 28.3864C6.02287 25.1633 3.34375 20.7959 3.34375 15.604ZM10.1781 13.6218C10.9151 10.2638 14.9933 8.87409 17.5482 11.1412C17.6463 11.2278 17.742 11.3236 17.8335 11.4188C17.9249 11.3236 18.0207 11.2278 18.1187 11.1412C20.6737 8.87409 24.752 10.2638 25.4888 13.6217C25.9757 15.7118 25.2088 17.5224 24.0108 19.0376C22.8179 20.5465 21.165 21.8054 19.7964 22.8148C18.6321 23.6736 17.0349 23.6736 15.8707 22.8148C14.502 21.8054 12.8491 20.5465 11.6562 19.0376C10.4582 17.5224 9.69135 15.7118 10.1781 13.6218Z" fill="white"/>
</g>
<defs>
<clipPath id="clip0_85_2">
<rect width="35.6661" height="35.6661" fill="white"/>
</clipPath>
</defs>
</svg>
